<?xml version="1.0" encoding="utf-8"?>
<?xml-stylesheet type="text/xsl" href="rss1.xsl"?>
<rss version="2.0" xmlns:atom="http://www.w3.org/2005/Atom" xmlns:content="http://purl.org/rss/1.0/modules/content/" xmlns:dc="http://purl.org/dc/elements/1.1/" xmlns:media="http://search.yahoo.com/mrss/">
<channel>
 <title>Getty</title>
 <link>http://www.gettyimg.com/</link>
 <atom:link href="http://www.gettyimg.com/" rel="self" type="application/rss+xml" />

 
                <item>
                <title><![CDATA[【Cinema Center】MOVIE - Miraculous World: Shanghai – The Legend of Ladydragon (2021) 1080p Disney+ WEB-DL DDP5.1 H.264-LADYBUG]]></title>
                <link><![CDATA[https://sharemania.us/threads/miraculous-world-shanghai-%E2%80%93-the-legend-of-ladydragon-2021-1080p-disney-web-dl-ddp5-1-h-264-ladybug.236258/]]></link>
                <description><![CDATA[<article>
<blockquote class="messageText SelectQuoteContainer ugc baseHtml">
<span style="font-size: 22px">Miraculous World: Shanghai – The Legend of Ladydragon</span><br>
<br>
<div class="bbCodeBlock bbCodeQuote">
<aside>
<blockquote class="quoteContainer"><div class="quote">Synopsis:<br>
<span style="font-size: 15px">Marinette travels to Shanghai to meet Adrian, but her purse is stolen with Tikki inside. Broke and alone in a new city, she must rely on the assistance of a young girl named Fei.</span></div><div class="quoteExpand">Click to expand...</div></blockquote>
</aside>
</div>
<div class="ToggleTriggerAnchor bbCodeSpoilerContainer">
<button type="button" class="button bbCodeSpoilerButton ToggleTrigger Tooltip JsOnly" data-target="> .SpoilerTarget"><span>Spoiler: <span class="SpoilerTitle">Mediainfo</span></span></button>
<div class="SpoilerTarget bbCodeSpoilerText">
<div class="bbCodeBlock bbCodeCode">
<div class="type">Code:</div>
<pre>General
Unique ID                                : 231690216807760265603579720347230127146 (0xAE4DE9A296D2ECBBF3601713A1E3C42A)
Complete name                            : Miraculous.World.Shanghai.The.Legend.of.Ladydragon.2021.1080p.DSNP.WEB-DL.DDP5.1.H.264-LADYBUG.mkv
Format                                   : Matroska
Format version                           : Version 4
File size                                : 2.92 GiB
Duration                                 : 54 min 1 s
Overall bit rate mode                    : Variable
Overall bit rate                         : 7 729 kb/s
Writing application                      : mkvmerge v69.0.0 ('Day And Age') 64-bit
Writing library                          : libebml v1.4.2 + libmatroska v1.6.4

Video
ID                                       : 1
Format                                   : AVC
Format/Info                              : Advanced Video Codec
Format profile                           : High@L4
Format settings                          : CABAC / 4 Ref Frames
Format settings, CABAC                   : Yes
Format settings, Reference frames        : 4 frames
Codec ID                                 : V_MPEG4/ISO/AVC
Duration                                 : 54 min 1 s
Bit rate mode                            : Variable
Bit rate                                 : 7 214 kb/s
Maximum bit rate                         : 12.7 Mb/s
Width                                    : 1 920 pixels
Height                                   : 1 080 pixels
Display aspect ratio                     : 16:9
Frame rate mode                          : Constant
Frame rate                               : 25.000 FPS
Color space                              : YUV
Chroma subsampling                       : 4:2:0
Bit depth                                : 8 bits
Scan type                                : Progressive
Bits/(Pixel*Frame)                       : 0.139
Stream size                              : 2.72 GiB (93%)
Default                                  : Yes
Forced                                   : No
Color range                              : Limited
Color primaries                          : BT.709
Transfer characteristics                 : BT.709
Matrix coefficients                      : BT.709

Audio #1
ID                                       : 2
Format                                   : E-AC-3
Format/Info                              : Enhanced AC-3
Commercial name                          : Dolby Digital Plus
Codec ID                                 : A_EAC3
Duration                                 : 54 min 1 s
Bit rate mode                            : Constant
Bit rate                                 : 256 kb/s
Channel(s)                               : 6 channels
Channel layout                           : L R C LFE Ls Rs
Sampling rate                            : 48.0 kHz
Frame rate                               : 31.250 FPS (1536 SPF)
Compression mode                         : Lossy
Stream size                              : 98.9 MiB (3%)
Language                                 : French
Service kind                             : Complete Main
Default                                  : Yes
Forced                                   : No

Audio #2
ID                                       : 3
Format                                   : E-AC-3
Format/Info                              : Enhanced AC-3
Commercial name                          : Dolby Digital Plus
Codec ID                                 : A_EAC3
Duration                                 : 54 min 1 s
Bit rate mode                            : Constant
Bit rate                                 : 256 kb/s
Channel(s)                               : 6 channels
Channel layout                           : L R C LFE Ls Rs
Sampling rate                            : 48.0 kHz
Frame rate                               : 31.250 FPS (1536 SPF)
Compression mode                         : Lossy
Stream size                              : 98.9 MiB (3%)
Language                                 : English
Service kind                             : Complete Main
Default                                  : No
Forced                                   : No

Text #1
ID                                       : 4
Format                                   : UTF-8
Codec ID                                 : S_TEXT/UTF8
Codec ID/Info                            : UTF-8 Plain Text
Duration                                 : 16 min 39 s
Bit rate                                 : 8 b/s
Count of elements                        : 19
Stream size                              : 1.01 KiB (0%)
Title                                    : Forced (For French audio)
Language                                 : French
Default                                  : Yes
Forced                                   : Yes

Text #2
ID                                       : 5
Format                                   : UTF-8
Codec ID                                 : S_TEXT/UTF8
Codec ID/Info                            : UTF-8 Plain Text
Duration                                 : 53 min 12 s
Bit rate                                 : 73 b/s
Count of elements                        : 813
Stream size                              : 28.5 KiB (0%)
Language                                 : English
Default                                  : No
Forced                                   : No

Text #3
ID                                       : 6
Format                                   : UTF-8
Codec ID                                 : S_TEXT/UTF8
Codec ID/Info                            : UTF-8 Plain Text
Duration                                 : 53 min 17 s
Bit rate                                 : 73 b/s
Count of elements                        : 830
Stream size                              : 28.9 KiB (0%)
Title                                    : SDH
Language                                 : English
Default                                  : No
Forced                                   : No

Text #4
ID                                       : 7
Format                                   : UTF-8
Codec ID                                 : S_TEXT/UTF8
Codec ID/Info                            : UTF-8 Plain Text
Duration                                 : 53 min 10 s
Bit rate                                 : 61 b/s
Count of elements                        : 722
Stream size                              : 24.1 KiB (0%)
Language                                 : Czech
Default                                  : No
Forced                                   : No

Text #5
ID                                       : 8
Format                                   : UTF-8
Codec ID                                 : S_TEXT/UTF8
Codec ID/Info                            : UTF-8 Plain Text
Duration                                 : 53 min 21 s
Bit rate                                 : 66 b/s
Count of elements                        : 709
Stream size                              : 26.0 KiB (0%)
Language                                 : Hungarian
Default                                  : No
Forced                                   : No

Text #6
ID                                       : 9
Format                                   : UTF-8
Codec ID                                 : S_TEXT/UTF8
Codec ID/Info                            : UTF-8 Plain Text
Duration                                 : 53 min 20 s
Bit rate                                 : 60 b/s
Count of elements                        : 672
Stream size                              : 23.8 KiB (0%)
Language                                 : Polish
Default                                  : No
Forced                                   : No

Text #7
ID                                       : 10
Format                                   : UTF-8
Codec ID                                 : S_TEXT/UTF8
Codec ID/Info                            : UTF-8 Plain Text
Duration                                 : 53 min 10 s
Bit rate                                 : 76 b/s
Count of elements                        : 790
Stream size                              : 29.8 KiB (0%)
Language                                 : Romanian
Default                                  : No
Forced                                   : No

Text #8
ID                                       : 11
Format                                   : UTF-8
Codec ID                                 : S_TEXT/UTF8
Codec ID/Info                            : UTF-8 Plain Text
Duration                                 : 53 min 20 s
Bit rate                                 : 68 b/s
Count of elements                        : 692
Stream size                              : 26.7 KiB (0%)
Language                                 : Turkish
Default                                  : No
Forced                                   : No

Text #9
ID                                       : 12
Format                                   : UTF-8
Codec ID                                 : S_TEXT/UTF8
Codec ID/Info                            : UTF-8 Plain Text
Duration                                 : 53 min 55 s
Bit rate                                 : 57 b/s
Count of elements                        : 709
Stream size                              : 22.6 KiB (0%)
Title                                    : Chinese (Hong Kong SAR China)
Language                                 : Chinese
Default                                  : No
Forced                                   : No

Text #10
ID                                       : 13
Format                                   : UTF-8
Codec ID                                 : S_TEXT/UTF8
Codec ID/Info                            : UTF-8 Plain Text
Duration                                 : 53 min 55 s
Bit rate                                 : 59 b/s
Count of elements                        : 707
Stream size                              : 23.6 KiB (0%)
Title                                    : Chinese (Traditional)
Language                                 : Chinese
Default                                  : No
Forced                                   : No

</pre>
</div></div>
</div><br>
<span style="font-size: 18px">Download Link:</span><br>
<div class="bbCodeBlock bbCodeVfcHH HiddenContent">
<div class="attribution type">Hidden Content:</div>
<blockquote>You must either reply or click 'Like' to see the hidden information contained here.</blockquote>
</div>
<div class="messageTextEndMarker">&nbsp;</div>
</blockquote>
</article>]]></description>
                <author><![CDATA[fr3akyphantom]]></author>
                </item>

                </channel></rss>